<?xml version="1.0" encoding="iso-8859-1"?>
<!-- Uploaded to: SVG Repo, www.svgrepo.com, Generator: SVG Repo Mixer Tools -->
<!DOCTYPE svg PUBLIC "-//W3C//DTD SVG 1.1//EN" "http://www.w3.org/Graphics/SVG/1.1/DTD/svg11.dtd">
<svg fill="#000000" height="800px" width="800px" version="1.1" id="Capa_1" xmlns="http://www.w3.org/2000/svg" xmlns:xlink="http://www.w3.org/1999/xlink" 
	 viewBox="0 0 355.617 355.617" xml:space="preserve">
<g>
	<path d="M138.028,296.547c1.036-2.684,1.894-6.324,1.894-11.063c0-19.885-4.738-37.518-6.775-44.176l0,0
		c-0.064-0.215-0.174-0.602-0.311-1.111l-0.172-0.635c-0.22-0.787-1.625-5.148-2.814-8.779v-0.002
		c-1.51-4.33-3.07-8.809-4.142-13.65l-0.041-0.182c-1.505-6.539-6.444-30.416-6.791-63.154l-0.001-0.053v-0.054
		c0-4.109,1.534-7.485,3.279-10.077c0.817-12.611,2.729-25.902,5.721-39.822c-22.609-27.264-42.699-45.102-42.699-45.102
		s-13.802,93.348,11.665,163.318C109.604,257.068,123.954,281.728,138.028,296.547z"/>
	<path d="M177.809,0c0,0-34.344,63.494-42.955,129.234c0.818-0.896,1.669-1.832,2.553-2.811c3.234-3.578,6.659-6.686,9.971-9.691
		l0.071-0.064c3.579-3.242,7.28-6.596,10.097-10.096c3.537-4.403,7.023-12.635,6.49-18.233c-0.404-4.143,0.805-8.001,3.403-10.862
		c2.392-2.635,5.807-4.146,9.368-4.146h2.004c3.561,0,6.973,1.509,9.363,4.14c2.596,2.854,3.808,6.707,3.412,10.848
		c-0.537,5.621,2.949,13.85,6.487,18.252c2.812,3.496,6.515,6.854,10.114,10.114c3.33,3.021,6.773,6.144,10.025,9.742
		c0.883,0.977,1.731,1.911,2.551,2.808C212.152,63.494,177.809,0,177.809,0z"/>
	<path d="M126.455,303.732l0.287-0.041c0.893-0.125,1.629-0.23,2.279-0.328c-1.503-1.617-3.02-3.34-4.553-5.197
		c-14.085-17.072-26.933-41.402-38.186-72.318c-7.537-20.709-12.443-44.857-14.678-72.102
		c-25.459-31.82-42.844-57.293-42.844-57.293s-5.955,110.414,30.903,175.113c10.525,18.475,20.991,33.531,31.075,45.336
		c5.5-5.65,14.751-10.672,30.269-12.363C123.266,304.191,125.014,303.941,126.455,303.732z"/>
	<path d="M233.313,314.457c-2.457-0.379-4.311-0.645-5.82-0.861c-4.638-0.656-5.883-0.83-11.305-2.522
		c-2.135-0.666-10.492-9.094-10.492-25.59c0-21.252,5.047-40.021,7.213-47.102c0.059-0.186,0.199-0.723,0.396-1.445
		c0.359-1.328,2.989-9.357,2.989-9.357c1.426-4.086,2.901-8.311,3.86-12.652l0.051-0.223c1.449-6.283,6.201-29.258,6.537-61.033
		c0-3.206-2.666-5.996-4.256-7.662c-0.293-0.306-0.551-0.574-0.744-0.799c-1.532-1.783-3.551-3.983-5.887-6.529
		c-1.54-1.68-3.237-3.529-5.064-5.553c-2.922-3.232-6.182-6.189-9.336-9.05c-3.877-3.513-7.883-7.147-11.176-11.244
		c-4.922-6.122-9.473-16.833-8.648-25.468c0.125-1.301-0.181-2.428-0.855-3.17c-0.516-0.566-1.231-0.866-1.965-0.866
		c-0.336,0-0.676,0.063-1.001,0.191c-0.326-0.128-0.667-0.191-1.003-0.191c-0.733,0-1.449,0.3-1.964,0.866
		c-0.674,0.742-0.982,1.869-0.855,3.17c0.822,8.635-3.729,19.346-8.648,25.468c-3.295,4.097-7.3,7.731-11.178,11.244
		c-3.152,2.86-6.415,5.817-9.337,9.05c-1.826,2.023-3.523,3.873-5.063,5.553c-2.336,2.547-4.353,4.746-5.887,6.529
		c-0.193,0.225-0.449,0.493-0.742,0.799c-1.59,1.666-4.258,4.456-4.258,7.679c0.338,31.759,5.09,54.733,6.537,61.017l0.051,0.223
		c0.96,4.342,2.436,8.566,3.86,12.652c0,0,2.63,8.029,2.989,9.357c0.197,0.723,0.338,1.26,0.396,1.445
		c2.166,7.08,7.213,25.85,7.213,47.102c0,16.496-8.357,24.924-10.492,25.59c-5.42,1.691-6.665,1.865-11.306,2.522
		c-1.509,0.217-3.361,0.482-5.818,0.861c-26.622,2.83-29.497,16.047-29.497,21.602c0,1.486,0.77,6.322,4.285,10.777
		c3.156,4.008,9.447,8.781,21.484,8.781c1.807,0,3.717-0.105,5.68-0.318c8.012-0.863,16.086-2.154,23.895-3.402
		c2.836-0.457,5.666-0.91,8.502-1.346c3.777-0.58,10.588-0.963,20.237-1.139c0.451-0.006,0.765-0.016,0.918-0.022
		c0.153,0.006,0.467,0.016,0.917,0.022c9.65,0.176,16.459,0.559,20.236,1.139c2.836,0.435,5.668,0.889,8.502,1.346
		c7.809,1.248,15.885,2.539,23.895,3.402c1.963,0.213,3.873,0.318,5.68,0.318c12.04,0,18.33-4.773,21.486-8.781
		c3.516-4.453,4.283-9.291,4.283-10.777C262.809,330.504,259.936,317.287,233.313,314.457z M191.889,206.256
		c-0.396,0-0.773-0.088-1.154-0.268c-1.238-0.494-2.827-2.861-2.975-3.777c6.168-4.293,10.336-12.445,10.336-21.805
		c0-13.816-1.458-25.018-20.287-25.018s-20.287,11.201-20.287,25.018c0,9.359,4.168,17.512,10.336,21.803
		c-0.146,0.916-1.771,3.17-2.975,3.779c-0.379,0.18-0.756,0.268-1.154,0.268c-3.963,0-8.934-8.684-10.237-12.137
		c-2.225-5.871-4.997-15.963-5.595-30.688l-0.023-0.564c-0.15-3.104,4.521-11.035,5.139-12.393
		c0.853-1.868,11.889-18.693,15.166-22.678c1.16-1.41,7.041-9.215,9.632-12.661c2.591,3.446,8.47,11.251,9.628,12.661
		c3.281,3.984,14.314,20.81,15.168,22.678c0.618,1.357,5.289,9.289,5.141,12.393l-0.025,0.564
		c-0.596,14.725-3.371,24.816-5.596,30.688C200.822,197.572,195.854,206.256,191.889,206.256z"/>
	<path d="M326.855,96.453c0,0-17.385,25.473-42.844,57.293c-2.234,27.244-7.141,51.393-14.678,72.102
		c-11.253,30.918-24.101,55.248-38.186,72.32c-1.532,1.855-3.049,3.578-4.551,5.195c0.66,0.1,1.408,0.205,2.316,0.334l0.244,0.035
		c1.442,0.207,3.191,0.459,5.449,0.807c15.519,1.689,24.77,6.711,30.27,12.363c10.084-11.805,20.55-26.861,31.075-45.336
		C332.811,206.867,326.855,96.453,326.855,96.453z"/>
	<path d="M177.809,131.708c-0.936,1.22-1.573,2.035-1.907,2.44c-1.544,1.877-5.373,7.502-8.648,12.469
		c3.154-0.818,6.676-1.229,10.556-1.229c3.88,0,7.401,0.41,10.556,1.229c-3.276-4.969-7.107-10.594-8.65-12.469
		C179.541,133.938,179.19,133.511,177.809,131.708z"/>
	<path d="M236.742,153.672v0.053v0.054c-0.348,32.786-5.287,56.644-6.783,63.13l-0.04,0.178c-1.077,4.877-2.635,9.352-4.152,13.701
		c-1.189,3.627-2.592,7.984-2.814,8.779l-0.16,0.594c-0.158,0.582-0.277,1.004-0.322,1.148c-2.037,6.658-6.775,24.289-6.775,44.176
		c0,4.738,0.857,8.381,1.894,11.064c14.074-14.818,28.425-39.478,41.188-74.543c25.467-69.971,11.665-163.318,11.665-163.318
		s-20.09,17.838-42.699,45.102c2.992,13.918,4.902,27.207,5.721,39.818C235.207,146.195,236.742,149.568,236.742,153.672z"/>
</g>
</svg>